<svg width="47" height="47" viewBox="0 0 47 47" fill="none" xmlns="http://www.w3.org/2000/svg">
<path d="M43.4429 23.1787L25.7078 5.45273L24.519 4.26396C24.2481 3.99489 23.8818 3.84387 23.5 3.84387C23.1182 3.84387 22.752 3.99489 22.4811 4.26396L3.55717 23.1787C3.27963 23.4552 3.06028 23.7844 2.91208 24.1471C2.76388 24.5097 2.68982 24.8983 2.69428 25.29C2.71264 26.9057 4.05747 28.1954 5.67309 28.1954H7.62377V43.1445H39.3763V28.1954H41.3683C42.1532 28.1954 42.8921 27.8879 43.4475 27.3325C43.721 27.0599 43.9376 26.7358 44.085 26.3789C44.2323 26.022 44.3074 25.6394 44.3058 25.2533C44.3058 24.473 43.9983 23.7341 43.4429 23.1787ZM26.0704 39.8398H20.9297V30.4766H26.0704V39.8398ZM36.0716 24.8907V39.8398H29.0079V29.375C29.0079 28.3606 28.1863 27.5391 27.1719 27.5391H19.8282C18.8138 27.5391 17.9922 28.3606 17.9922 29.375V39.8398H10.9285V24.8907H6.52221L23.5046 7.92206L24.5649 8.98232L40.4825 24.8907H36.0716Z" fill="white"/>
</svg>
