<svg width="37" height="38" viewBox="0 0 37 38" fill="none" xmlns="http://www.w3.org/2000/svg">
<path d="M15.4166 28.25C18.153 28.2494 20.8106 27.3334 22.9661 25.6477L29.7433 32.4248L31.9232 30.2449L25.146 23.4677C26.8326 21.312 27.7493 18.6538 27.7499 15.9167C27.7499 9.11637 22.2169 3.58333 15.4166 3.58333C8.61629 3.58333 3.08325 9.11637 3.08325 15.9167C3.08325 22.717 8.61629 28.25 15.4166 28.25ZM15.4166 6.66666C20.518 6.66666 24.6666 10.8153 24.6666 15.9167C24.6666 21.018 20.518 25.1667 15.4166 25.1667C10.3152 25.1667 6.16659 21.018 6.16659 15.9167C6.16659 10.8153 10.3152 6.66666 15.4166 6.66666Z" fill="#0075BE"/>
</svg>
