<svg width="36" height="38" viewBox="0 0 36 38" fill="none" xmlns="http://www.w3.org/2000/svg">
<path d="M5 18.8333C5 21.3143 7.019 23.3333 9.5 23.3333C10.691 23.3333 11.768 22.8608 12.5735 22.1033L21.56 27.2393C21.533 27.4343 21.5 27.6293 21.5 27.8333C21.5 30.3143 23.519 32.3333 26 32.3333C28.481 32.3333 30.5 30.3143 30.5 27.8333C30.5 25.3523 28.481 23.3333 26 23.3333C24.809 23.3333 23.732 23.8058 22.9265 24.5633L13.94 19.4288C13.967 19.2323 14 19.0373 14 18.8333C14 18.6293 13.967 18.4343 13.94 18.2378L22.9265 13.1033C23.732 13.8608 24.809 14.3333 26 14.3333C28.481 14.3333 30.5 12.3143 30.5 9.83331C30.5 7.35231 28.481 5.33331 26 5.33331C23.519 5.33331 21.5 7.35231 21.5 9.83331C21.5 10.0373 21.533 10.2323 21.56 10.4288L12.5735 15.5633C11.744 14.7753 10.6441 14.3352 9.5 14.3333C7.019 14.3333 5 16.3523 5 18.8333Z" fill="white"/>
</svg>
