<svg width="35" height="36" viewBox="0 0 35 36" fill="none" xmlns="http://www.w3.org/2000/svg">
<path d="M6.56252 12.6383C6.56252 15.5477 8.75731 17.7425 11.6667 17.7425C14.5761 17.7425 16.7709 15.5477 16.7709 12.6383C16.7709 9.72895 14.5761 7.53416 11.6667 7.53416C8.75731 7.53416 6.56252 9.72895 6.56252 12.6383ZM27.7084 11.8333H24.7917V16.2083H20.4167V19.125H24.7917V23.5H27.7084V19.125H32.0834V16.2083H27.7084V11.8333ZM5.83335 27.875H20.4167V26.4167C20.4167 22.396 17.1456 19.125 13.125 19.125H10.2084C6.18773 19.125 2.91669 22.396 2.91669 26.4167V27.875H5.83335Z" fill="#0075BE"/>
</svg>
