<svg width="24" height="25" viewBox="0 0 24 25" fill="none" xmlns="http://www.w3.org/2000/svg">
<path d="M10.9298 23.4167C10.4498 23.4167 9.96985 23.2967 9.52985 23.0567C8.63985 22.5567 8.1098 21.6666 8.1098 20.6566V15.3067C8.1098 14.7967 7.77979 14.0466 7.46979 13.6566L3.6698 9.66666C3.0398 9.03666 2.5498 7.93665 2.5498 7.12665V4.80667C2.5498 3.19667 3.76982 1.93665 5.31982 1.93665H18.6598C20.1898 1.93665 21.4298 3.17667 21.4298 4.70667V6.92667C21.4298 7.97667 20.7998 9.18664 20.1998 9.77664C19.9098 10.0666 19.4298 10.0666 19.1398 9.77664C18.8498 9.48664 18.8498 9.00664 19.1398 8.71664C19.5098 8.34664 19.9298 7.51667 19.9298 6.92667V4.70667C19.9298 4.00666 19.3598 3.43665 18.6598 3.43665H5.31982C4.60982 3.43665 4.0498 4.03667 4.0498 4.80667V7.12665C4.0498 7.49665 4.34981 8.22667 4.73981 8.61667L8.58984 12.6667C9.09984 13.2967 9.59979 14.3567 9.59979 15.3067V20.6566C9.59979 21.3166 10.0498 21.6366 10.2498 21.7466C10.6798 21.9866 11.1898 21.9767 11.5898 21.7367L12.9898 20.8367C13.2798 20.6667 13.5598 20.1166 13.5598 19.7466C13.5598 19.3366 13.8998 18.9966 14.3098 18.9966C14.7198 18.9966 15.0598 19.3366 15.0598 19.7466C15.0598 20.6466 14.4998 21.6767 13.7898 22.1067L12.3998 23.0067C11.9498 23.2767 11.4398 23.4167 10.9298 23.4167Z" fill="white"/>
<path d="M16.0701 17.9366C13.8901 17.9366 12.1201 16.1666 12.1201 13.9866C12.1201 11.8066 13.8901 10.0366 16.0701 10.0366C18.2501 10.0366 20.0201 11.8066 20.0201 13.9866C20.0201 16.1666 18.2501 17.9366 16.0701 17.9366ZM16.0701 11.5366C14.7201 11.5366 13.6201 12.6366 13.6201 13.9866C13.6201 15.3366 14.7201 16.4366 16.0701 16.4366C17.4201 16.4366 18.5201 15.3366 18.5201 13.9866C18.5201 12.6366 17.4201 11.5366 16.0701 11.5366Z" fill="white"/>
<path d="M19.87 18.5366C19.68 18.5366 19.4901 18.4666 19.3401 18.3166L18.3401 17.3166C18.0501 17.0266 18.0501 16.5466 18.3401 16.2566C18.6301 15.9666 19.1101 15.9666 19.4001 16.2566L20.4001 17.2566C20.6901 17.5466 20.6901 18.0266 20.4001 18.3166C20.2601 18.4566 20.06 18.5366 19.87 18.5366Z" fill="white"/>
</svg>
