<svg width="260" height="348" viewBox="0 0 260 348" fill="none" xmlns="http://www.w3.org/2000/svg">
<path d="M0 0.5H260V347.5H0V0.5Z" fill="#D9D9D9"/>
<path d="M100.369 170.281V184.5H97.918V170.281H100.369Z" fill="black"/>
<path d="M105.662 170.281H107.85L111.961 181.248L116.062 170.281H118.25L112.82 184.5H111.082L105.662 170.281ZM104.666 170.281H106.746L107.107 179.773V184.5H104.666V170.281ZM117.166 170.281H119.256V184.5H116.805V179.773L117.166 170.281Z" fill="black"/>
<path d="M129.129 172.176L124.881 184.5H122.312L127.664 170.281H129.305L129.129 172.176ZM132.684 184.5L128.426 172.176L128.24 170.281H129.891L135.262 184.5H132.684ZM132.479 179.227V181.17H124.744V179.227H132.479Z" fill="black"/>
<path d="M148.865 177.234V182.664C148.663 182.931 148.348 183.224 147.918 183.543C147.495 183.855 146.932 184.126 146.229 184.354C145.525 184.581 144.65 184.695 143.602 184.695C142.71 184.695 141.893 184.546 141.15 184.246C140.408 183.94 139.767 183.494 139.227 182.908C138.693 182.322 138.279 181.609 137.986 180.77C137.693 179.923 137.547 178.96 137.547 177.879V176.893C137.547 175.818 137.68 174.861 137.947 174.021C138.221 173.175 138.611 172.459 139.119 171.873C139.627 171.287 140.239 170.844 140.955 170.545C141.678 170.239 142.495 170.086 143.406 170.086C144.572 170.086 145.535 170.281 146.297 170.672C147.065 171.056 147.658 171.59 148.074 172.273C148.491 172.957 148.755 173.738 148.865 174.617H146.463C146.385 174.122 146.232 173.68 146.004 173.289C145.783 172.898 145.464 172.592 145.047 172.371C144.637 172.143 144.103 172.029 143.445 172.029C142.879 172.029 142.381 172.137 141.951 172.352C141.521 172.566 141.163 172.882 140.877 173.299C140.597 173.715 140.385 174.223 140.242 174.822C140.099 175.421 140.027 176.105 140.027 176.873V177.879C140.027 178.66 140.109 179.354 140.271 179.959C140.441 180.564 140.682 181.076 140.994 181.492C141.313 181.909 141.701 182.225 142.156 182.439C142.612 182.648 143.126 182.752 143.699 182.752C144.259 182.752 144.718 182.706 145.076 182.615C145.434 182.518 145.717 182.404 145.926 182.273C146.141 182.137 146.307 182.007 146.424 181.883V179.061H143.465V177.234H148.865Z" fill="black"/>
<path d="M162.137 182.557V184.5H154.588V182.557H162.137ZM155.281 170.281V184.5H152.83V170.281H155.281ZM161.15 176.219V178.133H154.588V176.219H161.15ZM162.088 170.281V172.234H154.588V170.281H162.088Z" fill="black"/>
</svg>
