<svg width="100" height="101" viewBox="0 0 100 101" fill="none" xmlns="http://www.w3.org/2000/svg">
<path d="M50 95.5916C25.2917 95.5916 5.20837 75.5083 5.20837 50.8C5.20837 26.0916 25.2917 6.0083 50 6.0083C74.7084 6.0083 94.7917 26.0916 94.7917 50.8C94.7917 75.5083 74.7084 95.5916 50 95.5916ZM50 12.2583C28.75 12.2583 11.4584 29.55 11.4584 50.8C11.4584 72.05 28.75 89.3416 50 89.3416C71.25 89.3416 88.5417 72.05 88.5417 50.8C88.5417 29.55 71.25 12.2583 50 12.2583Z" fill="#292D32"/>
<path d="M44.0834 65.7166C43.25 65.7166 42.4584 65.3833 41.875 64.8L30.0834 53.0083C28.875 51.8 28.875 49.8 30.0834 48.5916C31.2917 47.3833 33.2917 47.3833 34.5 48.5916L44.0834 58.175L65.5 36.7583C66.7084 35.55 68.7084 35.55 69.9167 36.7583C71.125 37.9666 71.125 39.9666 69.9167 41.175L46.2917 64.8C45.7084 65.3833 44.9167 65.7166 44.0834 65.7166Z" fill="#292D32"/>
</svg>
