<svg width="46" height="46" viewBox="0 0 46 46" fill="none" xmlns="http://www.w3.org/2000/svg">
<path d="M23 24.4375C16.9242 24.4375 11.9792 19.4925 11.9792 13.4167C11.9792 7.34084 16.9242 2.39584 23 2.39584C29.0758 2.39584 34.0208 7.34084 34.0208 13.4167C34.0208 19.4925 29.0758 24.4375 23 24.4375ZM23 5.27084C18.515 5.27084 14.8542 8.93167 14.8542 13.4167C14.8542 17.9017 18.515 21.5625 23 21.5625C27.485 21.5625 31.1458 17.9017 31.1458 13.4167C31.1458 8.93167 27.485 5.27084 23 5.27084Z" fill="white"/>
<path d="M6.53613 43.6042C5.7503 43.6042 5.09863 42.9525 5.09863 42.1667C5.09863 33.9825 13.1295 27.3125 23.0003 27.3125C24.9361 27.3125 26.8336 27.5617 28.6736 28.0792C29.4403 28.29 29.8811 29.0758 29.6703 29.8425C29.4595 30.6092 28.6736 31.0501 27.907 30.8392C26.3353 30.3984 24.687 30.1875 23.0003 30.1875C14.7203 30.1875 7.97363 35.5542 7.97363 42.1667C7.97363 42.9525 7.32197 43.6042 6.53613 43.6042Z" fill="white"/>
<path d="M34.5 43.6042C32.2383 43.6042 30.0916 42.7609 28.4241 41.2467C27.7533 40.6717 27.1591 39.9625 26.6991 39.1767C25.8558 37.7967 25.3958 36.1675 25.3958 34.5C25.3958 32.1042 26.3158 29.8617 27.9642 28.1558C29.6892 26.3733 32.0083 25.3958 34.5 25.3958C37.1067 25.3958 39.5792 26.5075 41.2658 28.4242C42.7608 30.0917 43.6042 32.2383 43.6042 34.5C43.6042 35.2283 43.5083 35.9567 43.3167 36.6467C43.125 37.5092 42.7608 38.41 42.2625 39.1959C40.6716 41.9175 37.6817 43.6042 34.5 43.6042ZM34.5 28.2708C32.7942 28.2708 31.2225 28.9416 30.0342 30.1491C28.9034 31.3183 28.2708 32.8517 28.2708 34.5C28.2708 35.6308 28.5775 36.7425 29.1717 37.7008C29.4783 38.2375 29.8808 38.7166 30.3408 39.1191C31.4908 40.1733 32.9667 40.7484 34.5 40.7484C36.6658 40.7484 38.7167 39.5983 39.8283 37.7392C40.1542 37.2025 40.4033 36.5892 40.5375 35.9951C40.6717 35.4967 40.7292 35.0175 40.7292 34.5192C40.7292 32.9859 40.1542 31.5101 39.1192 30.3601C37.9692 29.0184 36.2825 28.2708 34.5 28.2708Z" fill="white"/>
<path d="M37.3745 35.8991H31.6437C30.8579 35.8991 30.2062 35.2475 30.2062 34.4616C30.2062 33.6758 30.8579 33.0241 31.6437 33.0241H37.3745C38.1604 33.0241 38.812 33.6758 38.812 34.4616C38.812 35.2475 38.1604 35.8991 37.3745 35.8991Z" fill="white"/>
<path d="M34.5 38.8317C33.7142 38.8317 33.0625 38.18 33.0625 37.3942V31.6634C33.0625 30.8775 33.7142 30.2259 34.5 30.2259C35.2858 30.2259 35.9375 30.8775 35.9375 31.6634V37.3942C35.9375 38.1992 35.2858 38.8317 34.5 38.8317Z" fill="white"/>
</svg>
