<svg width="35" height="36" viewBox="0 0 35 36" fill="none" xmlns="http://www.w3.org/2000/svg">
<path d="M11.6667 17.7425C14.5761 17.7425 16.7709 15.5477 16.7709 12.6383C16.7709 9.72894 14.5761 7.53415 11.6667 7.53415C8.75731 7.53415 6.56252 9.72894 6.56252 12.6383C6.56252 15.5477 8.75731 17.7425 11.6667 17.7425ZM13.125 19.125H10.2084C6.18773 19.125 2.91669 22.396 2.91669 26.4166V27.875H20.4167V26.4166C20.4167 22.396 17.1456 19.125 13.125 19.125ZM29.5954 12.2591L23.3246 18.5183L21.4404 16.6341L19.3784 18.6962L23.3246 22.6396L31.6546 14.3241L29.5954 12.2591Z" fill="#979797"/>
</svg>
