<svg width="43" height="44" viewBox="0 0 43 44" fill="none" xmlns="http://www.w3.org/2000/svg">
<path d="M29.3474 41.2604H5.80487C4.10279 41.2604 2.52613 40.4722 1.50488 39.0926C0.465716 37.6951 0.161148 35.9391 0.680731 34.2729L8.22363 10.0316C8.90447 7.77407 10.9828 6.23325 13.3478 6.23325H35.3853C37.5532 6.23325 39.5062 7.5234 40.3303 9.53007C40.7782 10.5692 40.8678 11.7518 40.5991 12.9163L34.5612 37.1574C33.9878 39.5762 31.8378 41.2604 29.3474 41.2604ZM13.3657 8.93868C12.2011 8.93868 11.1441 9.7092 10.8036 10.838L3.26074 35.0793C3.0099 35.9213 3.15322 36.7992 3.69072 37.5159C4.19238 38.1967 4.98072 38.5909 5.82281 38.5909H29.3653C30.6016 38.5909 31.6765 37.7487 31.9632 36.5483L38.0011 12.2891C38.1445 11.6978 38.1087 11.1067 37.8757 10.5871C37.4457 9.56584 36.4962 8.92075 35.4032 8.92075H13.3657V8.93868Z" fill="white"/>
<path d="M37.2308 41.2604H28.6667C27.9321 41.2604 27.3229 40.6512 27.3229 39.9166C27.3229 39.182 27.9321 38.5729 28.6667 38.5729H37.2308C37.9654 38.5729 38.6463 38.2683 39.1479 37.7308C39.6496 37.1933 39.9004 36.4767 39.8467 35.7421L38.0729 11.3396C38.0192 10.605 38.5746 9.95994 39.3092 9.90619C40.0438 9.87036 40.6887 10.4078 40.7425 11.1423L42.5163 35.545C42.6238 37.0142 42.1042 38.4834 41.1008 39.5584C40.1154 40.6513 38.7 41.2604 37.2308 41.2604Z" fill="white"/>
<path d="M17.3429 13.2745C17.2354 13.2745 17.1279 13.2566 17.0204 13.2386C16.3038 13.0595 15.8559 12.3427 16.035 11.6082L17.8983 3.86826C18.0775 3.15159 18.7942 2.70359 19.5288 2.88275C20.2454 3.06192 20.6934 3.77865 20.5142 4.51323L18.6509 12.2534C18.5075 12.8625 17.9521 13.2745 17.3429 13.2745Z" fill="white"/>
<path d="M29.3474 13.2925C29.2578 13.2925 29.1503 13.2924 29.0607 13.2566C28.3441 13.0954 27.8782 12.3787 28.0216 11.662L29.7057 3.88623C29.8669 3.15165 30.5836 2.70381 31.3003 2.84714C32.017 2.99047 32.4828 3.72486 32.3394 4.44153L30.6553 12.2175C30.5299 12.8625 29.9745 13.2925 29.3474 13.2925Z" fill="white"/>
<path d="M28.1295 23.3437H13.7962C13.0616 23.3437 12.4524 22.7346 12.4524 22C12.4524 21.2654 13.0616 20.6562 13.7962 20.6562H28.1295C28.8641 20.6562 29.4733 21.2654 29.4733 22C29.4733 22.7346 28.8641 23.3437 28.1295 23.3437Z" fill="white"/>
<path d="M26.3379 30.5104H12.0045C11.2699 30.5104 10.6608 29.9013 10.6608 29.1667C10.6608 28.4321 11.2699 27.8229 12.0045 27.8229H26.3379C27.0724 27.8229 27.6816 28.4321 27.6816 29.1667C27.6816 29.9013 27.0724 30.5104 26.3379 30.5104Z" fill="white"/>
</svg>
