<svg width="44" height="45" viewBox="0 0 44 45" fill="none" xmlns="http://www.w3.org/2000/svg">
<path d="M35.6033 22.0417H29.3333C28.5817 22.0417 27.9583 21.4183 27.9583 20.6667V7.85167C27.9583 6.495 28.49 5.23001 29.4433 4.27667C30.3967 3.32334 31.6617 2.79167 33.0183 2.79167H33.0367C35.3283 2.81001 37.4917 3.70834 39.1417 5.34C40.7917 7.00834 41.69 9.20834 41.69 11.5V15.9367C41.7083 19.585 39.2517 22.0417 35.6033 22.0417ZM30.7083 19.2917H35.6033C37.73 19.2917 38.9583 18.0633 38.9583 15.9367V11.5C38.9583 9.92334 38.335 8.42001 37.2167 7.28334C36.0983 6.18334 34.595 5.56001 33.0367 5.54167C33.0367 5.54167 33.0367 5.54167 33.0183 5.54167C32.4133 5.54167 31.8267 5.78 31.3867 6.22C30.9467 6.66 30.7083 7.22834 30.7083 7.85167V19.2917V19.2917Z" fill="white"/>
<path d="M16.4996 43.2717C15.6379 43.3083 14.8312 42.9417 14.2262 42.3183L11.1829 39.2567C11.0179 39.0917 10.7613 39.0733 10.5779 39.22L7.44291 41.5667C6.47124 42.3 5.18791 42.4283 4.08791 41.8783C2.98791 41.3283 2.30957 40.2283 2.30957 39V11.5C2.30957 5.96334 5.48124 2.79167 11.0179 2.79167H33.0179C33.7696 2.79167 34.3929 3.41501 34.3929 4.16667C34.3929 4.91834 33.7696 5.54167 33.0179 5.54167C31.7529 5.54167 30.7262 6.56834 30.7262 7.83334V39C30.7262 40.2283 30.0479 41.3283 28.9479 41.8783C27.8479 42.4283 26.5646 42.3183 25.5929 41.585L22.4579 39.2383C22.2746 39.0917 22.0179 39.1283 21.8712 39.275L18.7912 42.355C18.1679 42.9417 17.3612 43.2717 16.4996 43.2717ZM10.8346 36.3783C11.6779 36.3783 12.5029 36.69 13.1263 37.3317L16.1696 40.3933C16.2796 40.5033 16.4262 40.5217 16.4996 40.5217C16.4996 40.485 16.7196 40.5033 16.8296 40.3933L19.9096 37.3133C21.0462 36.1767 22.8429 36.0667 24.1079 37.0383L27.2246 39.3667C27.4263 39.5133 27.6096 39.4583 27.7012 39.4033C27.7929 39.3483 27.9579 39.2383 27.9579 39V7.83334C27.9579 7.00834 28.1596 6.22001 28.5079 5.54167H10.9996C6.92958 5.54167 5.04125 7.43001 5.04125 11.5V39C5.04125 39.2567 5.20625 39.3667 5.29791 39.4217C5.40791 39.4767 5.59124 39.5133 5.77457 39.3667L8.90958 37.02C9.47791 36.5983 10.1563 36.3783 10.8346 36.3783Z" fill="white"/>
<path d="M21.5417 20.2083H11.4583C10.7067 20.2083 10.0833 19.585 10.0833 18.8333C10.0833 18.0817 10.7067 17.4583 11.4583 17.4583H21.5417C22.2933 17.4583 22.9167 18.0817 22.9167 18.8333C22.9167 19.585 22.2933 20.2083 21.5417 20.2083Z" fill="white"/>
<path d="M16.5 25.25C15.7483 25.25 15.125 24.6267 15.125 23.875V13.7917C15.125 13.04 15.7483 12.4167 16.5 12.4167C17.2517 12.4167 17.875 13.04 17.875 13.7917V23.875C17.875 24.6267 17.2517 25.25 16.5 25.25Z" fill="white"/>
</svg>
